<svg width="380" height="380" xmlns="http://www.w3.org/2000/svg" xmlns:xlink="http://www.w3.org/1999/xlink" overflow="hidden"><defs><clipPath id="clip0"><rect x="450" y="170" width="380" height="380"/></clipPath></defs><g clip-path="url(#clip0)" transform="translate(-450 -170)"><path d="M489 341.167C489 323.402 503.402 309 521.167 309L760.833 309C778.598 309 793 323.402 793 341.167L793 469.833C793 487.598 778.598 502 760.833 502L521.167 502C503.402 502 489 487.598 489 469.833Z" fill="#A6A6A6" fill-rule="evenodd"/><path d="M507 382C507 355.49 528.49 334 555 334 581.51 334 603 355.49 603 382 603 408.51 581.51 430 555 430 528.49 430 507 408.51 507 382Z" fill="#FFC000" fill-rule="evenodd"/><path d="M678 382C678 355.49 699.49 334 726 334 752.51 334 774 355.49 774 382 774 408.51 752.51 430 726 430 699.49 430 678 408.51 678 382Z" fill="#FFC000" fill-rule="evenodd"/><rect x="0" y="0" width="15" height="67" fill="#A6A6A6" transform="matrix(-1 0 0 1 647 244)"/><path d="M617 240.5C617 228.074 626.85 218 639 218 651.15 218 661 228.074 661 240.5 661 252.926 651.15 263 639 263 626.85 263 617 252.926 617 240.5Z" fill="#FF0000" fill-rule="evenodd"/><path d="M534 378C534 363.088 545.864 351 560.5 351 575.136 351 587 363.088 587 378 587 392.912 575.136 405 560.5 405 545.864 405 534 392.912 534 378Z" fill-rule="evenodd"/><path d="M693 380C693 365.088 704.864 353 719.5 353 734.136 353 746 365.088 746 380 746 394.912 734.136 407 719.5 407 704.864 407 693 394.912 693 380Z" fill-rule="evenodd"/><path d="M617 447.5C617 429.551 628.864 415 643.5 415 658.136 415 670 429.551 670 447.5 670 465.449 658.136 480 643.5 480 628.864 480 617 465.449 617 447.5Z" fill-rule="evenodd"/></g></svg>