<svg width="380" height="380" xmlns="http://www.w3.org/2000/svg" xmlns:xlink="http://www.w3.org/1999/xlink" overflow="hidden"><defs><clipPath id="clip0"><rect x="450" y="170" width="380" height="380"/></clipPath></defs><g clip-path="url(#clip0)" transform="translate(-450 -170)"><path d="M498 337.5C498 259.352 561.576 196 640 196 718.424 196 782 259.352 782 337.5 782 415.648 718.424 479 640 479 561.576 479 498 415.648 498 337.5Z" fill="#358F10" fill-rule="evenodd"/><path d="M716 457 638.983 524 564 457Z" fill="#358F10" fill-rule="evenodd"/><path d="M517 338C517 270.069 572.069 215 640 215 707.931 215 763 270.069 763 338 763 405.931 707.931 461 640 461 572.069 461 517 405.931 517 338Z" fill="#FFFFFF" fill-rule="evenodd"/><path d="M604 282 700 337.5 604 393Z" fill="#358F10" fill-rule="evenodd"/></g></svg>