<svg width="380" height="380" xmlns="http://www.w3.org/2000/svg" xmlns:xlink="http://www.w3.org/1999/xlink" overflow="hidden"><defs><clipPath id="clip0"><rect x="450" y="170" width="380" height="380"/></clipPath></defs><g clip-path="url(#clip0)" transform="translate(-450 -170)"><rect x="601" y="271" width="105" height="85" fill="#FFFFFF"/><rect x="562" y="274" width="105" height="84" fill="#FFFFFF"/><rect x="541" y="301" width="106" height="68" fill="#FFFFFF"/><rect x="646" y="235" width="105" height="67" fill="#FFFFFF"/><rect x="622" y="250" width="105" height="67" fill="#FFFFFF"/><rect x="663" y="264" width="105" height="67" fill="#FFFFFF"/><rect x="668" y="301" width="105" height="68" fill="#FFFFFF"/><rect x="671" y="318" width="105" height="67" fill="#FFFFFF"/><rect x="668" y="379" width="105" height="67" fill="#FFFFFF"/><rect x="657" y="405" width="105" height="67" fill="#FFFFFF"/><rect x="666" y="425" width="105" height="67" fill="#FFFFFF"/><rect x="632" y="409" width="105" height="68" fill="#FFFFFF"/><rect x="621" y="397" width="105" height="67" fill="#FFFFFF"/><rect x="601" y="391" width="105" height="67" fill="#FFFFFF"/><rect x="585" y="382" width="105" height="67" fill="#FFFFFF"/><rect x="572" y="377" width="105" height="67" fill="#FFFFFF"/><rect x="559" y="369" width="105" height="67" fill="#FFFFFF"/><rect x="520" y="345" width="105" height="67" fill="#FFFFFF"/><rect x="613" y="262" width="105" height="67" fill="#FFFFFF"/><rect x="654" y="276" width="105" height="68" fill="#FFFFFF"/><path d="M643.089 352.823 726.569 216.212 758.895 235.966 675.416 372.577Z" fill-rule="evenodd"/><path d="M730.376 507.133 639.974 362.937 672.072 342.814 762.474 487.01Z" fill-rule="evenodd"/><rect x="501" y="341" width="170" height="37"/><path d="M603.34 273.771 626.509 227.401 727.648 196.22 772.905 221.494Z" fill-rule="evenodd"/><path d="M726.162 197.795 772.451 221.816 801.659 321.973 775.538 367.111Z" fill-rule="evenodd"/><path d="M724.805 197.49 760.967 185.961 773.211 224.365 737.049 235.895Z" fill-rule="evenodd"/><path d="M622.737 460.886 570.835 465.979 491.753 397.931 489.048 345.851Z" fill-rule="evenodd"/><path d="M493.461 398.388 489.188 346.728 559.439 267.569 611.24 265.673Z" fill-rule="evenodd"/><path d="M493.794 399.505 464.963 375.173 491.118 344.18 519.95 368.513Z" fill-rule="evenodd"/><path d="M775.313 362.915 800.86 408.38 770.386 508.16 723.796 531.592Z" fill-rule="evenodd"/><path d="M770.116 506.412 724.542 531.111 623.807 498.651 601.227 451.991Z" fill-rule="evenodd"/><path d="M771.005 505.657 760.331 541.843 721.433 530.369 732.107 494.183Z" fill-rule="evenodd"/></g></svg>